<svg width="257" height="453" viewBox="0 0 257 453" fill="none" xmlns="http://www.w3.org/2000/svg">
<path d="M-104.667 376.833C-152.992 376.833 -192.167 339.225 -192.167 292.833C-192.167 246.441 -152.992 208.833 -104.667 208.833C-98.866 208.833 -93.1969 209.375 -87.7117 210.41M-87.7117 210.41C-92.3892 198.29 -94.9445 185.181 -94.9445 171.5C-94.9445 109.644 -42.7109 59.5 21.7224 59.5C81.7413 59.5 131.174 103.009 137.667 158.964M-87.7117 210.41C-76.1879 212.582 -65.4755 216.925 -56.0555 222.978M60.6121 159.206C72.7743 155.079 85.8634 152.833 99.4997 152.833C112.866 152.833 125.707 154.991 137.667 158.964M137.667 158.964C183.357 174.141 216.167 215.808 216.167 264.833C216.167 318.521 176.816 363.388 124.292 374.299" stroke="#9DABD7" stroke-width="50" stroke-linecap="round"/>
<path d="M52.8333 376.833H12H-28.8333" stroke="#9DABD7" stroke-width="50" stroke-linecap="round"/>
</svg>
