<svg width="257" height="476" viewBox="0 0 257 476" fill="none" xmlns="http://www.w3.org/2000/svg">
<path d="M128.333 376.833C80.0085 376.833 40.8334 339.225 40.8334 292.833C40.8334 246.441 80.0085 208.833 128.333 208.833C134.134 208.833 139.803 209.375 145.288 210.41M145.288 210.41C140.611 198.29 138.055 185.181 138.055 171.5C138.055 109.644 190.289 59.5 254.722 59.5C314.741 59.5 364.174 103.009 370.667 158.964M145.288 210.41C156.812 212.582 167.525 216.925 176.945 222.978M293.612 159.206C305.774 155.079 318.863 152.833 332.5 152.833C345.867 152.833 358.707 154.991 370.667 158.964M370.667 158.964C416.357 174.141 449.167 215.808 449.167 264.833C449.167 318.521 409.816 363.388 357.292 374.299" stroke="#9DABD7" stroke-width="50" stroke-linecap="round"/>
<path d="M285.833 376.833H245H204.167" stroke="#9DABD7" stroke-width="50" stroke-linecap="round"/>
</svg>
