<svg width="346" height="475" viewBox="0 0 346 475" fill="none" xmlns="http://www.w3.org/2000/svg">
<path d="M-15.6667 375.833C-63.9916 375.833 -103.167 338.225 -103.167 291.833C-103.167 245.441 -63.9916 207.833 -15.6667 207.833C-9.86597 207.833 -4.19687 208.375 1.28827 209.41M1.28827 209.41C-3.38919 197.29 -5.94454 184.181 -5.94454 170.5C-5.94454 108.644 46.2891 58.5 110.722 58.5C170.741 58.5 220.174 102.009 226.667 157.964M1.28827 209.41C12.8121 211.582 23.5245 215.925 32.9445 221.978M149.612 158.206C161.774 154.079 174.863 151.833 188.5 151.833C201.866 151.833 214.707 153.991 226.667 157.964M226.667 157.964C272.357 173.141 305.167 214.808 305.167 263.833C305.167 317.521 265.816 362.388 213.292 373.299" stroke="#9DABD7" stroke-width="50" stroke-linecap="round"/>
<path d="M141.833 375.833H101H60.1667" stroke="#9DABD7" stroke-width="50" stroke-linecap="round"/>
</svg>
